<svg width="47" height="46" viewBox="0 0 47 46" fill="none" xmlns="http://www.w3.org/2000/svg">
<path d="M34.8 16.8999C34.7 13.4999 32.4 11.1999 29.1 11.0999C25 10.9999 20.8 10.9999 16.7 11.0999C13.2 11.1999 10.9 13.6999 10.9 17.0999C10.9 21.0999 10.9 25.0999 10.9 29.0999C10.9 32.7999 13.3 35.1999 16.9 35.1999C20.9 35.1999 24.9 35.1999 28.8 35.1999C32.4 35.1999 34.8 32.7999 34.8 29.1999C34.8 27.1999 34.8 25.1999 34.8 23.0999C34.8 21.1999 34.8 18.9999 34.8 16.8999ZM23.1 30.8999C18.6 30.8999 15.2 27.6999 15.1 23.2999C15 19.0999 18.5 15.6999 22.7 15.5999C26.9 15.4999 30.4 18.9999 30.5 23.2999C30.6 27.2999 27.1 30.7999 23.1 30.8999ZM30.7 16.9999C29.7 16.9999 28.9 16.0999 28.9 15.0999C28.9 14.0999 29.7 13.3999 30.7 13.3999C31.7 13.3999 32.5 14.2999 32.5 15.2999C32.5 16.1999 31.6 16.9999 30.7 16.9999Z" fill="white"/>
<path d="M23.1 0C10.4 0 0.0999756 10.3 0.0999756 23C0.0999756 35.7 10.4 46 23.1 46C35.8 46 46.1 35.7 46.1 23C46.1 10.3 35.8 0 23.1 0ZM37.5 30.1C37.5 31.8 36.9 33.3 35.9 34.7C34.5 36.7 32.5 37.6 30.3 38.2C25.3 38.2 20.2 38.2 15.2 38.2C15.1 38.2 15 38.1 14.9 38.1C10.3 36.9 7.99998 33.8 7.99998 29.2C7.99998 25.1 7.99998 21 7.99998 17C7.99998 12.4 11.6 8.6 16.3 8.5C20.7 8.4 25.1 8.4 29.4 8.5C33.8 8.6 37.4 12.2 37.5 16.6C37.6 21 37.5 25.5 37.5 30.1Z" fill="white"/>
<path d="M22.8 18.2998C20.1 18.2998 17.9 20.4998 17.9 22.9998C17.9 25.7998 20 27.9998 22.7 27.9998C25.4 27.9998 27.7 25.8998 27.7 23.1998C27.7 20.4998 25.5 18.2998 22.8 18.2998Z" fill="white"/>
</svg>
