<svg width="46" height="46" viewBox="0 0 46 46" fill="none" xmlns="http://www.w3.org/2000/svg">
<path d="M23 0C10.3 0 0 10.3 0 23C0 35.7 10.3 46 23 46C35.7 46 46 35.7 46 23C45.9 10.3 35.6 0 23 0ZM34.3 26.8C35.5 28.1 36.7 29.3 37.5 30.9C38.1 32.2 37.7 32.8 36.3 32.9C34.9 33 33.5 33 32.1 32.9C30.6 32.8 29.8 31.5 28.9 30.5C28.2 29.7 27.7 28.3 26.6 28.6C25.4 28.9 25.6 30.3 25.5 31.4C25.4 32.5 24.9 32.8 23.8 32.9C20.1 33.2 17.3 31.6 15.1 28.9C12.1 25.1 10 20.7 8.3 16.3C7.9 15.2 8.3 14.8 9.3 14.8C9.4 14.8 9.5 14.8 9.6 14.8C13.7 14.6 13.7 14.6 15.4 18.3C16.1 19.7 16.6 21.2 17.6 22.5C17.9 22.9 18.3 23.3 18.9 23.2C19.4 23.1 19.4 22.5 19.5 22.1C19.8 20.4 19.9 18.7 19.5 17C19.4 16.5 19.3 16 18.9 15.7C18.6 15.5 18 15.5 18.1 15C18.2 14.4 18.8 14.3 19.3 14.2C20.9 13.9 22.5 13.9 24 14.1C24.9 14.2 25.4 14.8 25.4 15.7C25.4 16.7 25.4 17.6 25.4 18.6H25.3C25.3 19.6 25.2 20.5 25.3 21.5C25.3 22.1 25.3 22.9 26 23.1C26.7 23.3 27.1 22.6 27.4 22.1C28.7 20.3 29.6 18.4 30.3 16.4C30.7 15.2 31.3 14.8 32.5 14.9C33.6 15 34.8 14.9 35.9 14.9C37.7 14.8 38.1 15.3 37.3 17C36.4 19.1 35 20.9 33.8 22.8C32.6 24.7 32.6 25 34.3 26.8Z" fill="white"/>
</svg>
