<svg width="47" height="46" viewBox="0 0 47 46" fill="none" xmlns="http://www.w3.org/2000/svg">
<path d="M23.4 0C10.7 0 0.400024 10.3 0.400024 23C0.400024 35.7 10.7 46 23.4 46C36.1 46 46.4 35.7 46.4 23C46.3 10.3 36.1 0 23.4 0ZM30.2 13.1C30 13.2 29.8 13.4 29.3 13.7C28.5 13.7 27.4 13.7 26.3 13.7C25.7 14.2 25.4 14.8 25.4 15.6C25.5 16.4 25.4 17.1 25.4 18C27 18 28.6 18 30.1 18C29.9 19.7 29.8 21.4 29.3 23.1C28 23.1 26.7 23.1 25.3 23.1C25.3 28 25.3 32.8 25.3 37.7C23.3 37.7 21.3 37.7 19.3 37.7C19.3 32.9 19.3 28 19.3 23.1C18.3 23.1 17.4 23.1 16.4 23.1C16.4 21.4 16.4 19.8 16.4 18.1C17.3 18.1 18.2 18.1 19.2 18.1C19.2 16.1 19.2 14.3 19.2 12.5C21 9.1 20.6 10.1 22.6 8.8C24.9 8.3 27.2 8.5 29.4 8.5C29.6 8.5 29.8 8.5 30 8.5C30.2 9.9 30.2 11.4 30.2 13.1Z" fill="white"/>
</svg>
