<svg width="46" height="46" viewBox="0 0 46 46" fill="none" xmlns="http://www.w3.org/2000/svg">
<path d="M23 0C10.3 0 0 10.3 0 23C0 35.7 10.3 46 23 46C35.7 46 46 35.7 46 23C46 10.3 35.6 0 23 0ZM37.2 25.3C37.1 26.4 37.1 27.5 36.9 28.6C36.6 30.2 35.8 31.5 34.4 32.4C34 32.6 33.4 32.8 32.9 32.8C29.6 33 26.3 33.1 23.4 33.2C19.6 33.1 16.3 32.9 13 32.8C11.2 32.7 10.1 31.6 9.4 30.1C9 29.2 8.8 28.3 8.8 27.4C8.7 25.2 8.7 22.9 8.7 20.7C8.7 19.5 8.8 18.3 9 17.1C9.3 15.6 10 14.3 11.3 13.5C11.9 13.1 12.6 13.1 13.3 13C19.4 12.6 25.5 12.6 31.6 13C32.2 13 32.8 13.1 33.4 13.1C34.7 13.2 35.5 13.8 36.2 14.9C36.8 15.9 37 16.9 37.1 18C37.3 20.4 37.3 22.9 37.2 25.3Z" fill="white"/>
<path d="M28.7 22.9C28 22.4 27.3 21.9 26.6 21.5C25.5 20.8 24.5 20.1 23.4 19.4C22.3 18.7 21.3 18 20.2 17.3C20.2 21.1 20.2 24.9001 20.2 28.7001C21.3 28.0001 22.3 27.3 23.4 26.6C24 26.2001 24.5 25.8 25.1 25.5C26.2 24.6 27.4 23.7 28.7 22.9Z" fill="white"/>
</svg>
